<svg width="40" height="41" viewBox="0 0 40 41" fill="none" xmlns="http://www.w3.org/2000/svg">
<path fill-rule="evenodd" clip-rule="evenodd" d="M20 40.8911C31.0457 40.8911 40 31.9368 40 20.8911C40 9.84542 31.0457 0.891113 20 0.891113C8.9543 0.891113 0 9.84542 0 20.8911C0 31.9368 8.9543 40.8911 20 40.8911Z" fill="#C53163"/>
<path fill-rule="evenodd" clip-rule="evenodd" d="M13.9425 27.2217C13.9425 26.5664 14.0675 25.8978 14.3175 25.2158C14.5674 24.5339 14.923 23.8883 15.3841 23.2792C15.8452 22.67 16.4009 22.1264 17.0514 21.6483C17.7018 21.1702 18.4274 20.8074 19.2283 20.5598C18.8157 20.2249 18.4298 19.873 18.0706 19.5041C17.7115 19.1353 17.3984 18.7579 17.1314 18.372C16.8645 17.9861 16.6546 17.5978 16.5017 17.2071C16.3488 16.8164 16.2723 16.4269 16.2723 16.0385C16.2723 15.5435 16.3269 15.0726 16.4361 14.6261C16.5453 14.1795 16.6958 13.7658 16.8875 13.3847C17.0793 13.0037 17.3062 12.6591 17.5683 12.3509C17.8304 12.0427 18.1119 11.7806 18.4128 11.5646C18.7138 11.3486 19.0281 11.1823 19.3557 11.0658C19.6833 10.9494 20.0122 10.8911 20.3422 10.8911C20.7791 10.8911 21.2001 11.0027 21.6054 11.226C22.0107 11.4493 22.3711 11.8036 22.6866 12.289C23.0021 12.7744 23.2545 13.4029 23.4438 14.1747C23.6331 14.9465 23.7277 15.8784 23.7277 16.9705C23.7277 17.7616 23.6998 18.5128 23.644 19.2238C23.5882 19.9349 23.5069 20.6157 23.4001 21.2661C23.6962 21.4505 23.9959 21.6301 24.2993 21.8048C24.6026 21.9796 24.9096 22.1543 25.2203 22.329C25.2834 22.3679 25.3622 22.414 25.4569 22.4674C25.5515 22.5208 25.6438 22.5778 25.7336 22.6385C25.8233 22.6991 25.8998 22.7598 25.9629 22.8205C26.026 22.8812 26.0575 22.9358 26.0575 22.9843C26.0575 23.0328 26.0369 23.0802 25.9957 23.1263C25.9544 23.1724 25.9059 23.2161 25.85 23.2573C25.7942 23.2986 25.7384 23.3338 25.6826 23.3629C25.6268 23.392 25.5843 23.4139 25.5552 23.4284C25.4727 23.4721 25.3659 23.494 25.2348 23.494C24.963 23.4891 24.6439 23.4357 24.2774 23.3338C23.911 23.2318 23.5117 23.0887 23.0797 22.9042C22.8662 23.8022 22.6101 24.6237 22.3116 25.3687C22.0131 26.1138 21.6867 26.7824 21.3324 27.3745C20.9781 27.9667 20.6031 28.4824 20.2075 28.9217C19.8119 29.361 19.4115 29.7262 19.0062 30.0174C18.6009 30.3087 18.1981 30.5271 17.7976 30.6727C17.3972 30.8183 17.0125 30.8911 16.6436 30.8911C16.2602 30.8911 15.9046 30.8135 15.577 30.6581C15.2494 30.5028 14.9642 30.271 14.7215 29.9628C14.4788 29.6546 14.2883 29.2724 14.15 28.8161C14.0117 28.3599 13.9425 27.8284 13.9425 27.2217ZM15.8064 27.6876C15.8064 28.1827 15.9022 28.5577 16.0939 28.8125C16.2857 29.0673 16.5393 29.1947 16.8548 29.1947C17.1751 29.1947 17.5379 29.054 17.9432 28.7724C18.3485 28.4909 18.755 28.0553 19.1627 27.4656C19.5705 26.8758 19.96 26.1271 20.3313 25.2195C20.7026 24.3118 21.0169 23.2319 21.2741 21.9796L21.0048 21.8121C20.5097 21.9092 20.0376 22.0779 19.5887 22.3181C19.1397 22.5584 18.7223 22.8435 18.3364 23.1736C17.9505 23.5037 17.6023 23.8665 17.2916 24.2621C16.981 24.6576 16.7152 25.0569 16.4944 25.4597C16.2735 25.8626 16.1037 26.257 15.9847 26.6428C15.8658 27.0287 15.8064 27.377 15.8064 27.6876ZM18.1362 15.5726C18.1362 15.9609 18.2211 16.3468 18.391 16.7302C18.5609 17.1137 18.7987 17.4935 19.1045 17.8696C19.4103 18.2458 19.7743 18.6183 20.1966 18.9872C20.6189 19.3561 21.0848 19.7201 21.5945 20.0793C21.677 19.4046 21.7425 18.6948 21.7911 17.9497C21.8396 17.2047 21.8639 16.4123 21.8639 15.5726C21.8639 14.9998 21.8275 14.5157 21.7547 14.1201C21.6819 13.7245 21.5836 13.4029 21.4598 13.1554C21.336 12.9079 21.1904 12.7295 21.023 12.6203C20.8555 12.5111 20.6796 12.4565 20.4951 12.4565C20.3155 12.4565 20.1335 12.5001 19.9491 12.5875C19.7646 12.6749 19.585 12.795 19.4103 12.9479C19.2356 13.1008 19.0705 13.2792 18.9152 13.483C18.7599 13.6869 18.6252 13.9041 18.5111 14.1347C18.3971 14.3652 18.3061 14.603 18.2381 14.8482C18.1701 15.0933 18.1362 15.3347 18.1362 15.5726Z" fill="white"/>
</svg>
