<svg width="22" height="24" viewBox="0 0 22 24" fill="none" xmlns="http://www.w3.org/2000/svg">
<path fill-rule="evenodd" clip-rule="evenodd" d="M21.9513 21.5986C21.9702 21.4978 21.984 21.3955 22 21.2944V3.14391C21.9846 3.04447 21.9714 2.94472 21.9526 2.84561C21.76 1.82893 20.9468 1.03995 19.9482 0.899057C19.9068 0.893551 19.8662 0.884158 19.8254 0.876709H2.17459C2.0681 0.896466 1.96099 0.911365 1.85608 0.93598C0.881395 1.16497 0.160196 1.97436 0.0213595 2.99265C0.0157055 3.03508 0.00722455 3.07719 0 3.11962V21.3197C0.0201031 21.435 0.0361227 21.5513 0.0612516 21.6659C0.276732 22.6486 1.09028 23.4104 2.05805 23.5386C2.10486 23.5445 2.15197 23.5539 2.19878 23.5616H19.8012C19.9156 23.5416 20.0302 23.525 20.1433 23.4998C21.0416 23.3032 21.7757 22.5304 21.9513 21.5986ZM2.38028 20.2071C2.38028 20.69 2.78579 21.1053 3.25413 21.1053C8.41685 21.1056 13.5793 21.1056 18.742 21.1053C19.2147 21.1053 19.618 20.6907 19.618 20.2042C19.6184 16.851 19.618 13.4982 19.618 10.1453V10.0757H17.5179C17.8144 11.0528 17.9055 12.0468 17.7893 13.0599C17.6724 14.0734 17.3558 15.0165 16.84 15.8875C16.324 16.7594 15.6549 17.4816 14.8357 18.0565C12.7123 19.5477 9.91673 19.6789 7.66362 18.3749C6.52465 17.7164 5.63038 16.7982 5.00687 15.6151C4.07679 13.8496 3.92821 11.9966 4.47382 10.074C3.77713 10.0747 3.08326 10.0747 2.37996 10.0747V10.1359C2.37996 13.493 2.37965 16.8501 2.38028 20.2071ZM10.8978 16.8135C13.3887 16.8685 15.4034 14.8164 15.4558 12.3205C15.5096 9.74662 13.4961 7.62064 11.0002 7.62226C8.56017 7.62064 6.57657 9.64492 6.54233 12.1495C6.50715 14.7215 8.50395 16.7604 10.8978 16.8135ZM19.6178 5.7901C19.6181 5.07399 19.6181 4.35756 19.6178 3.64145C19.6178 3.12776 19.2235 2.71902 18.726 2.7187C18.0334 2.71837 17.3408 2.71805 16.6478 2.7187C16.1515 2.71934 15.7561 3.12906 15.7558 3.64274C15.7554 4.3527 15.7536 5.06265 15.7583 5.77293C15.7589 5.87885 15.7784 5.98897 15.811 6.08937C15.9354 6.46735 16.2712 6.69925 16.6824 6.70119C17.0166 6.70184 17.3508 6.70087 17.6853 6.70087C18.0472 6.69666 18.4103 6.70378 18.7725 6.69471C19.2383 6.68273 19.6178 6.27107 19.6178 5.7901Z" fill="#333333" fill-opacity="0.504642"/>
</svg>
